<svg xmlns="http://www.w3.org/2000/svg" width="720" height="96" class="svgbob"><style>.svgbob line, .svgbob path, .svgbob circle, .svgbob rect, .svgbob polygon {
    stroke: #eeeeee;
    stroke-width: 2;
    stroke-opacity: 1;
    fill-opacity: 1;
    stroke-linecap: round;
    stroke-linejoin: miter;
}
.svgbob text {
    white-space: pre;
    fill: black;
    font-family: Iosevka Fixed, monospace;
    font-size: 14px;
}
.svgbob rect.backdrop {
    stroke: none;
    fill: transparent;
}
.svgbob .broken {
    stroke-dasharray: 8;
}
.svgbob .filled {
    fill: #eeeeee;
}
.svgbob .bg_filled {
    fill: transparent;
    stroke-width: 1;
}
.svgbob .nofill {
    fill: transparent;
}
.svgbob .end_marked_arrow {
    marker-end: url(#arrow);
}
.svgbob .start_marked_arrow {
    marker-start: url(#arrow);
}
.svgbob .end_marked_diamond {
    marker-end: url(#diamond);
}
.svgbob .start_marked_diamond {
    marker-start: url(#diamond);
}
.svgbob .end_marked_circle {
    marker-end: url(#circle);
}
.svgbob .start_marked_circle {
    marker-start: url(#circle);
}
.svgbob .end_marked_open_circle {
    marker-end: url(#open_circle);
}
.svgbob .start_marked_open_circle {
    marker-start: url(#open_circle);
}
.svgbob .end_marked_big_open_circle {
    marker-end: url(#big_open_circle);
}
.svgbob .start_marked_big_open_circle {
    marker-start: url(#big_open_circle);
}<!--separator--></style><defs><marker id="arrow" viewBox="-2 -2 8 8" refX="4" refY="2" markerWidth="7" markerHeight="7" orient="auto-start-reverse"><polygon points="0,0 0,4 4,2 0,0"></polygon></marker><marker id="diamond" viewBox="-2 -2 8 8" refX="4" refY="2" markerWidth="7" markerHeight="7" orient="auto-start-reverse"><polygon points="0,2 2,0 4,2 2,4 0,2"></polygon></marker><marker id="circle" viewBox="0 0 8 8" refX="4" refY="4" markerWidth="7" markerHeight="7" orient="auto-start-reverse"><circle cx="4" cy="4" r="2" class="filled"></circle></marker><marker id="open_circle" viewBox="0 0 8 8" refX="4" refY="4" markerWidth="7" markerHeight="7" orient="auto-start-reverse"><circle cx="4" cy="4" r="2" class="bg_filled"></circle></marker><marker id="big_open_circle" viewBox="0 0 8 8" refX="4" refY="4" markerWidth="7" markerHeight="7" orient="auto-start-reverse"><circle cx="4" cy="4" r="3" class="bg_filled"></circle></marker></defs><rect class="backdrop" x="0" y="0" width="720" height="96"></rect><rect x="0" y="0" width="8" height="16" class="solid filled" rx="0"></rect><rect x="8" y="0" width="8" height="16" class="solid filled" rx="0"></rect><rect x="40" y="0" width="8" height="16" class="solid filled" rx="0"></rect><rect x="48" y="0" width="8" height="16" class="solid filled" rx="0"></rect><rect x="0" y="16" width="8" height="16" class="solid filled" rx="0"></rect><rect x="8" y="16" width="8" height="16" class="solid filled" rx="0"></rect><rect x="32" y="16" width="8" height="16" class="solid filled" rx="0"></rect><rect x="40" y="16" width="8" height="16" class="solid filled" rx="0"></rect><rect x="0" y="32" width="8" height="16" class="solid filled" rx="0"></rect><rect x="8" y="32" width="8" height="16" class="solid filled" rx="0"></rect><rect x="16" y="32" width="8" height="16" class="solid filled" rx="0"></rect><rect x="24" y="32" width="8" height="16" class="solid filled" rx="0"></rect><rect x="32" y="32" width="8" height="16" class="solid filled" rx="0"></rect><rect x="0" y="48" width="8" height="16" class="solid filled" rx="0"></rect><rect x="8" y="48" width="8" height="16" class="solid filled" rx="0"></rect><rect x="32" y="48" width="8" height="16" class="solid filled" rx="0"></rect><rect x="40" y="48" width="8" height="16" class="solid filled" rx="0"></rect><rect x="0" y="64" width="8" height="16" class="solid filled" rx="0"></rect><rect x="8" y="64" width="8" height="16" class="solid filled" rx="0"></rect><rect x="40" y="64" width="8" height="16" class="solid filled" rx="0"></rect><rect x="48" y="64" width="8" height="16" class="solid filled" rx="0"></rect><rect x="64" y="0" width="8" height="16" class="solid filled" rx="0"></rect><rect x="72" y="0" width="8" height="16" class="solid filled" rx="0"></rect><rect x="80" y="0" width="8" height="16" class="solid filled" rx="0"></rect><rect x="88" y="0" width="8" height="16" class="solid filled" rx="0"></rect><rect x="96" y="0" width="8" height="16" class="solid filled" rx="0"></rect><rect x="104" y="0" width="8" height="16" class="solid filled" rx="0"></rect><rect x="112" y="0" width="8" height="16" class="solid filled" rx="0"></rect><rect x="64" y="16" width="8" height="16" class="solid filled" rx="0"></rect><rect x="72" y="16" width="8" height="16" class="solid filled" rx="0"></rect><rect x="64" y="32" width="8" height="16" class="solid filled" rx="0"></rect><rect x="72" y="32" width="8" height="16" class="solid filled" rx="0"></rect><rect x="80" y="32" width="8" height="16" class="solid filled" rx="0"></rect><rect x="88" y="32" width="8" height="16" class="solid filled" rx="0"></rect><rect x="96" y="32" width="8" height="16" class="solid filled" rx="0"></rect><rect x="64" y="48" width="8" height="16" class="solid filled" rx="0"></rect><rect x="72" y="48" width="8" height="16" class="solid filled" rx="0"></rect><rect x="64" y="64" width="8" height="16" class="solid filled" rx="0"></rect><rect x="72" y="64" width="8" height="16" class="solid filled" rx="0"></rect><rect x="80" y="64" width="8" height="16" class="solid filled" rx="0"></rect><rect x="88" y="64" width="8" height="16" class="solid filled" rx="0"></rect><rect x="96" y="64" width="8" height="16" class="solid filled" rx="0"></rect><rect x="104" y="64" width="8" height="16" class="solid filled" rx="0"></rect><rect x="112" y="64" width="8" height="16" class="solid filled" rx="0"></rect><rect x="136" y="0" width="8" height="16" class="solid filled" rx="0"></rect><rect x="144" y="0" width="8" height="16" class="solid filled" rx="0"></rect><rect x="152" y="0" width="8" height="16" class="solid filled" rx="0"></rect><rect x="160" y="0" width="8" height="16" class="solid filled" rx="0"></rect><rect x="168" y="0" width="8" height="16" class="solid filled" rx="0"></rect><rect x="128" y="16" width="8" height="16" class="solid filled" rx="0"></rect><rect x="136" y="16" width="8" height="16" class="solid filled" rx="0"></rect><rect x="168" y="16" width="8" height="16" class="solid filled" rx="0"></rect><rect x="176" y="16" width="8" height="16" class="solid filled" rx="0"></rect><rect x="128" y="32" width="8" height="16" class="solid filled" rx="0"></rect><rect x="136" y="32" width="8" height="16" class="solid filled" rx="0"></rect><rect x="144" y="32" width="8" height="16" class="solid filled" rx="0"></rect><rect x="152" y="32" width="8" height="16" class="solid filled" rx="0"></rect><rect x="160" y="32" width="8" height="16" class="solid filled" rx="0"></rect><rect x="168" y="32" width="8" height="16" class="solid filled" rx="0"></rect><rect x="176" y="32" width="8" height="16" class="solid filled" rx="0"></rect><rect x="128" y="48" width="8" height="16" class="solid filled" rx="0"></rect><rect x="136" y="48" width="8" height="16" class="solid filled" rx="0"></rect><rect x="168" y="48" width="8" height="16" class="solid filled" rx="0"></rect><rect x="176" y="48" width="8" height="16" class="solid filled" rx="0"></rect><rect x="128" y="64" width="8" height="16" class="solid filled" rx="0"></rect><rect x="136" y="64" width="8" height="16" class="solid filled" rx="0"></rect><rect x="168" y="64" width="8" height="16" class="solid filled" rx="0"></rect><rect x="176" y="64" width="8" height="16" class="solid filled" rx="0"></rect><rect x="192" y="0" width="8" height="16" class="solid filled" rx="0"></rect><rect x="200" y="0" width="8" height="16" class="solid filled" rx="0"></rect><rect x="208" y="0" width="8" height="16" class="solid filled" rx="0"></rect><rect x="248" y="0" width="8" height="16" class="solid filled" rx="0"></rect><rect x="256" y="0" width="8" height="16" class="solid filled" rx="0"></rect><rect x="192" y="16" width="8" height="16" class="solid filled" rx="0"></rect><rect x="200" y="16" width="8" height="16" class="solid filled" rx="0"></rect><rect x="208" y="16" width="8" height="16" class="solid filled" rx="0"></rect><rect x="216" y="16" width="8" height="16" class="solid filled" rx="0"></rect><rect x="248" y="16" width="8" height="16" class="solid filled" rx="0"></rect><rect x="256" y="16" width="8" height="16" class="solid filled" rx="0"></rect><rect x="192" y="32" width="8" height="16" class="solid filled" rx="0"></rect><rect x="200" y="32" width="8" height="16" class="solid filled" rx="0"></rect><rect x="216" y="32" width="8" height="16" class="solid filled" rx="0"></rect><rect x="224" y="32" width="8" height="16" class="solid filled" rx="0"></rect><rect x="248" y="32" width="8" height="16" class="solid filled" rx="0"></rect><rect x="256" y="32" width="8" height="16" class="solid filled" rx="0"></rect><rect x="192" y="48" width="8" height="16" class="solid filled" rx="0"></rect><rect x="200" y="48" width="8" height="16" class="solid filled" rx="0"></rect><rect x="224" y="48" width="8" height="16" class="solid filled" rx="0"></rect><rect x="232" y="48" width="8" height="16" class="solid filled" rx="0"></rect><rect x="248" y="48" width="8" height="16" class="solid filled" rx="0"></rect><rect x="256" y="48" width="8" height="16" class="solid filled" rx="0"></rect><rect x="192" y="64" width="8" height="16" class="solid filled" rx="0"></rect><rect x="200" y="64" width="8" height="16" class="solid filled" rx="0"></rect><rect x="232" y="64" width="8" height="16" class="solid filled" rx="0"></rect><rect x="240" y="64" width="8" height="16" class="solid filled" rx="0"></rect><rect x="248" y="64" width="8" height="16" class="solid filled" rx="0"></rect><rect x="256" y="64" width="8" height="16" class="solid filled" rx="0"></rect><rect x="272" y="0" width="8" height="16" class="solid filled" rx="0"></rect><rect x="280" y="0" width="8" height="16" class="solid filled" rx="0"></rect><rect x="320" y="0" width="8" height="16" class="solid filled" rx="0"></rect><rect x="328" y="0" width="8" height="16" class="solid filled" rx="0"></rect><rect x="272" y="16" width="8" height="16" class="solid filled" rx="0"></rect><rect x="280" y="16" width="8" height="16" class="solid filled" rx="0"></rect><rect x="320" y="16" width="8" height="16" class="solid filled" rx="0"></rect><rect x="328" y="16" width="8" height="16" class="solid filled" rx="0"></rect><rect x="272" y="32" width="8" height="16" class="solid filled" rx="0"></rect><rect x="280" y="32" width="8" height="16" class="solid filled" rx="0"></rect><rect x="320" y="32" width="8" height="16" class="solid filled" rx="0"></rect><rect x="328" y="32" width="8" height="16" class="solid filled" rx="0"></rect><rect x="272" y="48" width="8" height="16" class="solid filled" rx="0"></rect><rect x="280" y="48" width="8" height="16" class="solid filled" rx="0"></rect><rect x="320" y="48" width="8" height="16" class="solid filled" rx="0"></rect><rect x="328" y="48" width="8" height="16" class="solid filled" rx="0"></rect><rect x="280" y="64" width="8" height="16" class="solid filled" rx="0"></rect><rect x="288" y="64" width="8" height="16" class="solid filled" rx="0"></rect><rect x="296" y="64" width="8" height="16" class="solid filled" rx="0"></rect><rect x="304" y="64" width="8" height="16" class="solid filled" rx="0"></rect><rect x="312" y="64" width="8" height="16" class="solid filled" rx="0"></rect><rect x="320" y="64" width="8" height="16" class="solid filled" rx="0"></rect><rect x="376" y="0" width="8" height="16" class="solid filled" rx="0"></rect><rect x="384" y="0" width="8" height="16" class="solid filled" rx="0"></rect><rect x="392" y="0" width="8" height="16" class="solid filled" rx="0"></rect><rect x="400" y="0" width="8" height="16" class="solid filled" rx="0"></rect><rect x="408" y="0" width="8" height="16" class="solid filled" rx="0"></rect><rect x="416" y="0" width="8" height="16" class="solid filled" rx="0"></rect><rect x="376" y="16" width="8" height="16" class="solid filled" rx="0"></rect><rect x="384" y="16" width="8" height="16" class="solid filled" rx="0"></rect><rect x="416" y="16" width="8" height="16" class="solid filled" rx="0"></rect><rect x="424" y="16" width="8" height="16" class="solid filled" rx="0"></rect><rect x="376" y="32" width="8" height="16" class="solid filled" rx="0"></rect><rect x="384" y="32" width="8" height="16" class="solid filled" rx="0"></rect><rect x="392" y="32" width="8" height="16" class="solid filled" rx="0"></rect><rect x="400" y="32" width="8" height="16" class="solid filled" rx="0"></rect><rect x="408" y="32" width="8" height="16" class="solid filled" rx="0"></rect><rect x="416" y="32" width="8" height="16" class="solid filled" rx="0"></rect><rect x="376" y="48" width="8" height="16" class="solid filled" rx="0"></rect><rect x="384" y="48" width="8" height="16" class="solid filled" rx="0"></rect><rect x="416" y="48" width="8" height="16" class="solid filled" rx="0"></rect><rect x="424" y="48" width="8" height="16" class="solid filled" rx="0"></rect><rect x="376" y="64" width="8" height="16" class="solid filled" rx="0"></rect><rect x="384" y="64" width="8" height="16" class="solid filled" rx="0"></rect><rect x="416" y="64" width="8" height="16" class="solid filled" rx="0"></rect><rect x="424" y="64" width="8" height="16" class="solid filled" rx="0"></rect><rect x="440" y="0" width="8" height="16" class="solid filled" rx="0"></rect><rect x="448" y="0" width="8" height="16" class="solid filled" rx="0"></rect><rect x="456" y="0" width="8" height="16" class="solid filled" rx="0"></rect><rect x="464" y="0" width="8" height="16" class="solid filled" rx="0"></rect><rect x="472" y="0" width="8" height="16" class="solid filled" rx="0"></rect><rect x="480" y="0" width="8" height="16" class="solid filled" rx="0"></rect><rect x="488" y="0" width="8" height="16" class="solid filled" rx="0"></rect><rect x="440" y="16" width="8" height="16" class="solid filled" rx="0"></rect><rect x="448" y="16" width="8" height="16" class="solid filled" rx="0"></rect><rect x="440" y="32" width="8" height="16" class="solid filled" rx="0"></rect><rect x="448" y="32" width="8" height="16" class="solid filled" rx="0"></rect><rect x="456" y="32" width="8" height="16" class="solid filled" rx="0"></rect><rect x="464" y="32" width="8" height="16" class="solid filled" rx="0"></rect><rect x="472" y="32" width="8" height="16" class="solid filled" rx="0"></rect><rect x="440" y="48" width="8" height="16" class="solid filled" rx="0"></rect><rect x="448" y="48" width="8" height="16" class="solid filled" rx="0"></rect><rect x="440" y="64" width="8" height="16" class="solid filled" rx="0"></rect><rect x="448" y="64" width="8" height="16" class="solid filled" rx="0"></rect><rect x="456" y="64" width="8" height="16" class="solid filled" rx="0"></rect><rect x="464" y="64" width="8" height="16" class="solid filled" rx="0"></rect><rect x="472" y="64" width="8" height="16" class="solid filled" rx="0"></rect><rect x="480" y="64" width="8" height="16" class="solid filled" rx="0"></rect><rect x="488" y="64" width="8" height="16" class="solid filled" rx="0"></rect><rect x="512" y="0" width="8" height="16" class="solid filled" rx="0"></rect><rect x="520" y="0" width="8" height="16" class="solid filled" rx="0"></rect><rect x="528" y="0" width="8" height="16" class="solid filled" rx="0"></rect><rect x="536" y="0" width="8" height="16" class="solid filled" rx="0"></rect><rect x="544" y="0" width="8" height="16" class="solid filled" rx="0"></rect><rect x="504" y="16" width="8" height="16" class="solid filled" rx="0"></rect><rect x="512" y="16" width="8" height="16" class="solid filled" rx="0"></rect><rect x="544" y="16" width="8" height="16" class="solid filled" rx="0"></rect><rect x="552" y="16" width="8" height="16" class="solid filled" rx="0"></rect><rect x="504" y="32" width="8" height="16" class="solid filled" rx="0"></rect><rect x="512" y="32" width="8" height="16" class="solid filled" rx="0"></rect><rect x="520" y="32" width="8" height="16" class="solid filled" rx="0"></rect><rect x="528" y="32" width="8" height="16" class="solid filled" rx="0"></rect><rect x="536" y="32" width="8" height="16" class="solid filled" rx="0"></rect><rect x="544" y="32" width="8" height="16" class="solid filled" rx="0"></rect><rect x="552" y="32" width="8" height="16" class="solid filled" rx="0"></rect><rect x="504" y="48" width="8" height="16" class="solid filled" rx="0"></rect><rect x="512" y="48" width="8" height="16" class="solid filled" rx="0"></rect><rect x="544" y="48" width="8" height="16" class="solid filled" rx="0"></rect><rect x="552" y="48" width="8" height="16" class="solid filled" rx="0"></rect><rect x="504" y="64" width="8" height="16" class="solid filled" rx="0"></rect><rect x="512" y="64" width="8" height="16" class="solid filled" rx="0"></rect><rect x="544" y="64" width="8" height="16" class="solid filled" rx="0"></rect><rect x="552" y="64" width="8" height="16" class="solid filled" rx="0"></rect><rect x="568" y="0" width="8" height="16" class="solid filled" rx="0"></rect><rect x="576" y="0" width="8" height="16" class="solid filled" rx="0"></rect><rect x="584" y="0" width="8" height="16" class="solid filled" rx="0"></rect><rect x="624" y="0" width="8" height="16" class="solid filled" rx="0"></rect><rect x="632" y="0" width="8" height="16" class="solid filled" rx="0"></rect><rect x="568" y="16" width="8" height="16" class="solid filled" rx="0"></rect><rect x="576" y="16" width="8" height="16" class="solid filled" rx="0"></rect><rect x="584" y="16" width="8" height="16" class="solid filled" rx="0"></rect><rect x="592" y="16" width="8" height="16" class="solid filled" rx="0"></rect><rect x="624" y="16" width="8" height="16" class="solid filled" rx="0"></rect><rect x="632" y="16" width="8" height="16" class="solid filled" rx="0"></rect><rect x="568" y="32" width="8" height="16" class="solid filled" rx="0"></rect><rect x="576" y="32" width="8" height="16" class="solid filled" rx="0"></rect><rect x="592" y="32" width="8" height="16" class="solid filled" rx="0"></rect><rect x="600" y="32" width="8" height="16" class="solid filled" rx="0"></rect><rect x="624" y="32" width="8" height="16" class="solid filled" rx="0"></rect><rect x="632" y="32" width="8" height="16" class="solid filled" rx="0"></rect><rect x="568" y="48" width="8" height="16" class="solid filled" rx="0"></rect><rect x="576" y="48" width="8" height="16" class="solid filled" rx="0"></rect><rect x="600" y="48" width="8" height="16" class="solid filled" rx="0"></rect><rect x="608" y="48" width="8" height="16" class="solid filled" rx="0"></rect><rect x="624" y="48" width="8" height="16" class="solid filled" rx="0"></rect><rect x="632" y="48" width="8" height="16" class="solid filled" rx="0"></rect><rect x="568" y="64" width="8" height="16" class="solid filled" rx="0"></rect><rect x="576" y="64" width="8" height="16" class="solid filled" rx="0"></rect><rect x="608" y="64" width="8" height="16" class="solid filled" rx="0"></rect><rect x="616" y="64" width="8" height="16" class="solid filled" rx="0"></rect><rect x="624" y="64" width="8" height="16" class="solid filled" rx="0"></rect><rect x="632" y="64" width="8" height="16" class="solid filled" rx="0"></rect><rect x="656" y="0" width="8" height="16" class="solid filled" rx="0"></rect><rect x="664" y="0" width="8" height="16" class="solid filled" rx="0"></rect><rect x="672" y="0" width="8" height="16" class="solid filled" rx="0"></rect><rect x="680" y="0" width="8" height="16" class="solid filled" rx="0"></rect><rect x="688" y="0" width="8" height="16" class="solid filled" rx="0"></rect><rect x="696" y="0" width="8" height="16" class="solid filled" rx="0"></rect><rect x="648" y="16" width="8" height="16" class="solid filled" rx="0"></rect><rect x="656" y="16" width="8" height="16" class="solid filled" rx="0"></rect><rect x="696" y="16" width="8" height="16" class="solid filled" rx="0"></rect><rect x="704" y="16" width="8" height="16" class="solid filled" rx="0"></rect><rect x="648" y="32" width="8" height="16" class="solid filled" rx="0"></rect><rect x="656" y="32" width="8" height="16" class="solid filled" rx="0"></rect><rect x="696" y="32" width="8" height="16" class="solid filled" rx="0"></rect><rect x="704" y="32" width="8" height="16" class="solid filled" rx="0"></rect><rect x="648" y="48" width="8" height="16" class="solid filled" rx="0"></rect><rect x="656" y="48" width="8" height="16" class="solid filled" rx="0"></rect><rect x="696" y="48" width="8" height="16" class="solid filled" rx="0"></rect><rect x="704" y="48" width="8" height="16" class="solid filled" rx="0"></rect><rect x="656" y="64" width="8" height="16" class="solid filled" rx="0"></rect><rect x="664" y="64" width="8" height="16" class="solid filled" rx="0"></rect><rect x="672" y="64" width="8" height="16" class="solid filled" rx="0"></rect><rect x="680" y="64" width="8" height="16" class="solid filled" rx="0"></rect><rect x="688" y="64" width="8" height="16" class="solid filled" rx="0"></rect><rect x="696" y="64" width="8" height="16" class="solid filled" rx="0"></rect></svg>